<?xml version="1.0" encoding="utf-8"?>
<!-- Generator: Adobe Illustrator 16.0.0, SVG Export Plug-In . SVG Version: 6.00 Build 0)  -->
<!DOCTYPE svg PUBLIC "-//W3C//DTD SVG 1.1//EN" "http://www.w3.org/Graphics/SVG/1.1/DTD/svg11.dtd">
<svg version="1.1" id="Layer_1" xmlns="http://www.w3.org/2000/svg" xmlns:xlink="http://www.w3.org/1999/xlink" x="0px" y="0px"
	 width="40px" height="40px" viewBox="0 0 128 128" enable-background="new 0 0 128 128" xml:space="preserve">
<g>
	<g>
		<path fill="#282D33" d="M57.336,88.726L30.1,64l27.236-24.725v14.214h39.588v21.024H57.336V88.726z M36.051,64l17.285,15.692
			v-9.179h39.588V57.489H53.336v-9.18L36.051,64z"/>
	</g>
	<g>
		<g>
			<path fill="#282D33" d="M64,128C29.027,128,0.575,99.29,0.575,64.001C0.575,28.711,29.027,0,64,0s63.425,28.711,63.425,64.001h-4
				C123.425,30.917,96.767,4,64,4C31.233,4,4.575,30.917,4.575,64.001C4.575,97.085,31.233,124,64,124V128z"/>
		</g>
		<g>
			<g>
				<path fill="#282D33" d="M127.394,66.018l-3.998-0.133c0.021-0.626,0.029-1.255,0.029-1.884h4
					C127.425,64.675,127.416,65.347,127.394,66.018z"/>
			</g>
			<g>
				<path fill="#282D33" d="M68.089,127.869l-0.256-3.992c1.296-0.083,2.604-0.211,3.885-0.379l0.52,3.967
					C70.869,127.644,69.474,127.78,68.089,127.869z M76.461,126.764l-0.785-3.922c1.3-0.261,2.611-0.571,3.898-0.923l1.057,3.857
					C79.255,126.153,77.852,126.485,76.461,126.764z M84.72,124.505l-1.316-3.777c1.258-0.438,2.515-0.926,3.735-1.446l1.57,3.678
					C87.406,123.517,86.063,124.036,84.72,124.505z M92.585,121.146l-1.816-3.564c1.182-0.603,2.361-1.256,3.507-1.941l2.055,3.432
					C95.108,119.805,93.848,120.502,92.585,121.146z M99.927,116.75l-2.283-3.285c1.09-0.757,2.172-1.563,3.217-2.398l2.496,3.125
					C102.243,115.081,101.089,115.942,99.927,116.75z M106.609,111.407l-2.701-2.949c0.982-0.899,1.947-1.845,2.867-2.809
					l2.893,2.764C108.687,109.44,107.657,110.448,106.609,111.407z M112.521,105.22l-3.07-2.564c0.857-1.026,1.688-2.091,2.47-3.165
					l3.234,2.354C114.32,102.989,113.435,104.125,112.521,105.22z M117.557,98.299l-3.383-2.133c0.71-1.127,1.392-2.293,2.025-3.467
					l3.52,1.902C119.042,95.854,118.314,97.098,117.557,98.299z M121.628,90.769l-3.639-1.662c0.556-1.215,1.075-2.463,1.546-3.707
					l3.742,1.414C122.774,88.142,122.22,89.473,121.628,90.769z M124.658,82.756l-3.828-1.16c0.387-1.276,0.735-2.58,1.036-3.877
					l3.896,0.902C125.442,80.005,125.07,81.396,124.658,82.756z M126.589,74.421l-3.949-0.641c0.214-1.314,0.386-2.654,0.512-3.98
					l3.982,0.379C126.999,71.593,126.815,73.02,126.589,74.421z"/>
			</g>
			<g>
				<path fill="#282D33" d="M64,128v-4c0.63,0,1.262-0.01,1.89-0.028l0.121,3.998C65.342,127.99,64.671,128,64,128z"/>
			</g>
		</g>
	</g>
</g>
</svg>
